<?xml version="1.0" encoding="UTF-8" standalone="no"?>
<svg xmlns="http://www.w3.org/2000/svg" xmlns:xlink="http://www.w3.org/1999/xlink" contentScriptType="application/ecmascript" contentStyleType="text/css" height="640px" preserveAspectRatio="none" style="width:595px;height:640px;" version="1.1" viewBox="0 0 595 640" width="595px" zoomAndPan="magnify"><defs><filter height="300%" id="fr59odk" width="300%" x="-1" y="-1"><feGaussianBlur result="blurOut" stdDeviation="2.0"/><feColorMatrix in="blurOut" result="blurOut2" type="matrix" values="0 0 0 0 0 0 0 0 0 0 0 0 0 0 0 0 0 0 .4 0"/><feOffset dx="4.0" dy="4.0" in="blurOut2" result="blurOut3"/><feBlend in="SourceGraphic" in2="blurOut3" mode="normal"/></filter></defs><g><!--cluster ##86--><path d="M92.193,578 C92.193,575 94.193,573 97.193,573 C100.193,573 102.193,575 102.193,578 C102.193,575 104.193,573 107.193,573 C110.193,573 112.193,575 112.193,578 C112.193,575 114.193,573 117.193,573 C120.193,573 122.193,575 122.193,578 C122.193,575 124.193,573 127.193,573 C130.193,573 132.193,575 132.193,578 C132.193,575 134.193,573 137.193,573 C140.193,573 142.193,575 142.193,578 C142.193,575 144.193,573 147.193,573 C150.193,573 152.193,575 152.193,578 C152.193,575 154.193,573 157.193,573 C160.193,573 162.193,575 162.193,578 C162.193,575 164.193,573 167.193,573 C170.193,573 172.193,575 172.193,578 C172.193,575 174.193,573 177.193,573 C180.193,573 182.193,575 182.193,578 C182.193,575 184.193,573 187.193,573 C190.193,573 192.193,575 192.193,578 C192.193,575 194.193,573 197.193,573 C200.193,573 202.193,575 202.193,578 C202.193,575 204.193,573 207.193,573 C210.193,573 212.193,575 212.193,578 C212.193,575 214.193,573 217.193,573 C220.193,573 222.193,575 222.193,578 C222.193,575 224.193,573 227.193,573 C230.193,573 232.193,575 232.193,578 C232.193,575 234.193,573 237.193,573 C240.193,573 242.193,575 242.193,578 C245.193,578 247.193,580 247.193,583 C247.193,586 245.193,588 242.193,588 C245.193,588 247.193,590 247.193,593 C247.193,596 245.193,598 242.193,598 C245.193,598 247.193,600 247.193,603 C247.193,606 245.193,608 242.193,608 C245.193,608 247.193,610 247.193,613 C247.193,616 245.193,618 242.193,618 C245.193,618 247.193,620 247.193,623 C247.193,626 245.193,628 242.193,628 C242.193,631 239.193,633 237.193,633 C234.193,633 232.193,631 232.193,628 C232.193,631 229.193,633 227.193,633 C224.193,633 222.193,631 222.193,628 C222.193,631 219.193,633 217.193,633 C214.193,633 212.193,631 212.193,628 C212.193,631 209.193,633 207.193,633 C204.193,633 202.193,631 202.193,628 C202.193,631 199.193,633 197.193,633 C194.193,633 192.193,631 192.193,628 C192.193,631 189.193,633 187.193,633 C184.193,633 182.193,631 182.193,628 C182.193,631 179.193,633 177.193,633 C174.193,633 172.193,631 172.193,628 C172.193,631 169.193,633 167.193,633 C164.193,633 162.193,631 162.193,628 C162.193,631 159.193,633 157.193,633 C154.193,633 152.193,631 152.193,628 C152.193,631 149.193,633 147.193,633 C144.193,633 142.193,631 142.193,628 C142.193,631 139.193,633 137.193,633 C134.193,633 132.193,631 132.193,628 C132.193,631 129.193,633 127.193,633 C124.193,633 122.193,631 122.193,628 C122.193,631 119.193,633 117.193,633 C114.193,633 112.193,631 112.193,628 C112.193,631 109.193,633 107.193,633 C104.193,633 102.193,631 102.193,628 C102.193,631 99.193,633 97.193,633 C94.193,633 92.193,631 92.193,628 C89.193,628 87.193,626 87.193,623 C87.193,620 89.193,618 92.193,618 C89.193,618 87.193,616 87.193,613 C87.193,610 89.193,608 92.193,608 C89.193,608 87.193,606 87.193,603 C87.193,600 89.193,598 92.193,598 C89.193,598 87.193,596 87.193,593 C87.193,590 89.193,588 92.193,588 C89.193,588 87.193,586 87.193,583 C87.193,580 89.193,578 92.193,578 " fill="#FFFFFF" filter="url(#fr59odk)" style="stroke: #000000; stroke-width: 2.0;"/><!--cluster Main Thread--><polygon fill="#FFFFFF" filter="url(#fr59odk)" points="35.193,181,140.193,181,147.193,203.2969,302.193,203.2969,302.193,522,35.193,522,35.193,181" style="stroke: #000000; stroke-width: 2.0;"/><line style="stroke: #000000; stroke-width: 2.0;" x1="35.193" x2="147.193" y1="203.2969" y2="203.2969"/><text fill="#000000" font-family="sans-serif" font-size="14" font-weight="bold" lengthAdjust="spacingAndGlyphs" textLength="99" x="39.193" y="195.9951">Main Thread</text><!--cluster Bot Polling Thread--><polygon fill="#FFFFFF" filter="url(#fr59odk)" points="332.193,117,487.193,117,494.193,139.2969,588.193,139.2969,588.193,397,332.193,397,332.193,117" style="stroke: #000000; stroke-width: 2.0;"/><line style="stroke: #000000; stroke-width: 2.0;" x1="332.193" x2="494.193" y1="139.2969" y2="139.2969"/><text fill="#000000" font-family="sans-serif" font-size="14" font-weight="bold" lengthAdjust="spacingAndGlyphs" textLength="149" x="336.193" y="131.9951">Bot Polling Thread</text><!--cluster SQLite--><path d="M397.193,170 C397.193,160 453.193,160 453.193,160 C453.193,160 509.193,160 509.193,170 L509.193,262 C509.193,272 453.193,272 453.193,272 C453.193,272 397.193,272 397.193,262 L397.193,170 " fill="#FFFFFF" filter="url(#fr59odk)" style="stroke: #000000; stroke-width: 2.0;"/><path d="M397.193,170 C397.193,180 453.193,180 453.193,180 C453.193,180 509.193,180 509.193,170 " fill="none" style="stroke: #000000; stroke-width: 2.0;"/><text fill="#000000" font-family="sans-serif" font-size="14" font-weight="bold" lengthAdjust="spacingAndGlyphs" textLength="53" x="426.693" y="193.9951">SQLite</text><!--entity TelegramBotAPI--><ellipse cx="167.193" cy="596" fill="#FEFECE" filter="url(#fr59odk)" rx="8" ry="8" style="stroke: #A80036; stroke-width: 2.0;"/><text fill="#000000" font-family="sans-serif" font-size="14" lengthAdjust="spacingAndGlyphs" textLength="123" x="105.693" y="617.9951">Telegram Bot API</text><!--entity Web Server--><rect fill="#FEFECE" filter="url(#fr59odk)" height="46.2969" style="stroke: #A80036; stroke-width: 1.5;" width="123" x="102.693" y="335"/><rect fill="#FEFECE" height="10" style="stroke: #A80036; stroke-width: 1.5;" width="15" x="205.693" y="340"/><rect fill="#FEFECE" height="2" style="stroke: #A80036; stroke-width: 1.5;" width="4" x="203.693" y="342"/><rect fill="#FEFECE" height="2" style="stroke: #A80036; stroke-width: 1.5;" width="4" x="203.693" y="346"/><text fill="#000000" font-family="sans-serif" font-size="14" lengthAdjust="spacingAndGlyphs" textLength="83" x="117.693" y="367.9951">Web Server</text><!--entity API--><ellipse cx="164.193" cy="225" fill="#FEFECE" filter="url(#fr59odk)" rx="8" ry="8" style="stroke: #A80036; stroke-width: 2.0;"/><text fill="#000000" font-family="sans-serif" font-size="14" lengthAdjust="spacingAndGlyphs" textLength="22" x="153.193" y="246.9951">API</text><!--entity Bot--><rect fill="#FEFECE" filter="url(#fr59odk)" height="46.2969" style="stroke: #A80036; stroke-width: 1.5;" width="64" x="197.193" y="460"/><rect fill="#FEFECE" height="10" style="stroke: #A80036; stroke-width: 1.5;" width="15" x="241.193" y="465"/><rect fill="#FEFECE" height="2" style="stroke: #A80036; stroke-width: 1.5;" width="4" x="239.193" y="467"/><rect fill="#FEFECE" height="2" style="stroke: #A80036; stroke-width: 1.5;" width="4" x="239.193" y="471"/><text fill="#000000" font-family="sans-serif" font-size="14" lengthAdjust="spacingAndGlyphs" textLength="24" x="212.193" y="492.9951">Bot</text><!--entity Bot Polling Loop--><rect fill="#FEFECE" filter="url(#fr59odk)" height="46.2969" style="stroke: #A80036; stroke-width: 1.5;" width="154" x="360.193" y="335"/><rect fill="#FEFECE" height="10" style="stroke: #A80036; stroke-width: 1.5;" width="15" x="494.193" y="340"/><rect fill="#FEFECE" height="2" style="stroke: #A80036; stroke-width: 1.5;" width="4" x="492.193" y="342"/><rect fill="#FEFECE" height="2" style="stroke: #A80036; stroke-width: 1.5;" width="4" x="492.193" y="346"/><text fill="#000000" font-family="sans-serif" font-size="14" lengthAdjust="spacingAndGlyphs" textLength="114" x="375.193" y="367.9951">Bot Polling Loop</text><!--entity Votes--><rect fill="#FEFECE" filter="url(#fr59odk)" height="46.2969" style="stroke: #A80036; stroke-width: 1.5;" width="80" x="413.193" y="210"/><rect fill="#FEFECE" height="10" style="stroke: #A80036; stroke-width: 1.5;" width="15" x="473.193" y="215"/><rect fill="#FEFECE" height="2" style="stroke: #A80036; stroke-width: 1.5;" width="4" x="471.193" y="217"/><rect fill="#FEFECE" height="2" style="stroke: #A80036; stroke-width: 1.5;" width="4" x="471.193" y="221"/><text fill="#000000" font-family="sans-serif" font-size="14" lengthAdjust="spacingAndGlyphs" textLength="40" x="428.193" y="242.9951">Votes</text><!--entity Sending Utility--><rect fill="#FEFECE" filter="url(#fr59odk)" height="46.2969" style="stroke: #A80036; stroke-width: 1.5;" width="142" x="93.193" y="8"/><rect fill="#FEFECE" height="10" style="stroke: #A80036; stroke-width: 1.5;" width="15" x="215.193" y="13"/><rect fill="#FEFECE" height="2" style="stroke: #A80036; stroke-width: 1.5;" width="4" x="213.193" y="15"/><rect fill="#FEFECE" height="2" style="stroke: #A80036; stroke-width: 1.5;" width="4" x="213.193" y="19"/><text fill="#000000" font-family="sans-serif" font-size="14" lengthAdjust="spacingAndGlyphs" textLength="102" x="108.193" y="40.9951">Sending Utility</text><path d="M164.193,250.08 C164.193,271.699 164.193,310.238 164.193,334.663 " fill="none" style="stroke: #A80036; stroke-width: 1.0;"/><path d="M111.135,381.05 C88.4138,393.801 69.8273,411.051 83.193,430 C107.658,464.683 157.406,476.368 191.991,480.227 " fill="none" style="stroke: #A80036; stroke-width: 1.0; stroke-dasharray: 7.0,7.0;"/><polygon fill="#A80036" points="196.979,480.742,188.4381,475.8376,192.0055,480.2278,187.6154,483.7952,196.979,480.742" style="stroke: #A80036; stroke-width: 1.0;"/><text fill="#000000" font-family="sans-serif" font-size="13" lengthAdjust="spacingAndGlyphs" textLength="88" x="84.193" y="426.0669">sendMessage</text><path d="M175.964,381.274 C186.962,402.086 203.395,433.182 215.09,455.312 " fill="none" style="stroke: #A80036; stroke-width: 1.0; stroke-dasharray: 7.0,7.0;"/><polygon fill="#A80036" points="217.51,459.891,216.8429,450.0648,215.1745,455.47,209.7693,453.8016,217.51,459.891" style="stroke: #A80036; stroke-width: 1.0;"/><text fill="#000000" font-family="sans-serif" font-size="13" lengthAdjust="spacingAndGlyphs" textLength="68" x="202.193" y="426.0669">sendPhoto</text><path d="M197.171,487.244 C142.693,493.496 35.6729,509.208 13.193,538 C-14.3592,573.2882 47.2234,589.6505 100.5161,597.0822 " fill="none" style="stroke: #A80036; stroke-width: 1.0; stroke-dasharray: 7.0,7.0;"/><polygon fill="#A80036" points="105.6443,597.7739,97.2598,592.6066,100.6892,597.1055,96.1903,600.5348,105.6443,597.7739" style="stroke: #A80036; stroke-width: 1.0;"/><text fill="#000000" font-family="sans-serif" font-size="13" lengthAdjust="spacingAndGlyphs" textLength="75" x="14.193" y="551.0669">getUpdates</text><path d="M197.19,492.043 C174.11,499.702 144.584,513.757 130.193,538 C121.303,552.976 131.885,570.1018 143.975,583.0138 " fill="none" style="stroke: #A80036; stroke-width: 1.0; stroke-dasharray: 7.0,7.0;"/><polygon fill="#A80036" points="147.756,586.8786,144.3219,577.6478,144.2596,583.3044,138.6031,583.2421,147.756,586.8786" style="stroke: #A80036; stroke-width: 1.0;"/><text fill="#000000" font-family="sans-serif" font-size="13" lengthAdjust="spacingAndGlyphs" textLength="88" x="131.193" y="551.0669">sendMessage</text><path d="M231.95,506.303 C232.748,520.92 231.813,540.021 224.193,555 C218.393,566.4012 208.57,576.1557 198.698,583.8349 " fill="none" style="stroke: #A80036; stroke-width: 1.0; stroke-dasharray: 7.0,7.0;"/><polygon fill="#A80036" points="194.475,586.9976,204.0765,584.8041,198.477,584.0003,199.2808,578.4009,194.475,586.9976" style="stroke: #A80036; stroke-width: 1.0;"/><text fill="#000000" font-family="sans-serif" font-size="13" lengthAdjust="spacingAndGlyphs" textLength="68" x="231.193" y="551.0669">sendPhoto</text><path d="M261.435,496.344 C290.215,509.273 325.368,531.01 308.193,555 C291.188,578.7525 261.734,590.8889 234.129,597.0359 " fill="none" style="stroke: #A80036; stroke-width: 1.0; stroke-dasharray: 7.0,7.0;"/><polygon fill="#A80036" points="229,598.1154,238.631,600.1756,233.8928,597.0854,236.983,592.3472,229,598.1154" style="stroke: #A80036; stroke-width: 1.0;"/><text fill="#000000" font-family="sans-serif" font-size="13" lengthAdjust="spacingAndGlyphs" textLength="167" x="314.193" y="551.0669">editMessageReplyMarkup</text><path d="M408.615,256.947 C397.272,265.113 386.513,275.463 380.193,288 C371.45,305.343 384.835,322.201 400.823,334.912 " fill="none" style="stroke: #A80036; stroke-width: 1.0; stroke-dasharray: 7.0,7.0;"/><polygon fill="#A80036" points="412.813,254.037,403.1377,255.8778,408.704,256.8859,407.6959,262.4522,412.813,254.037" style="stroke: #A80036; stroke-width: 1.0;"/><text fill="#000000" font-family="sans-serif" font-size="13" lengthAdjust="spacingAndGlyphs" textLength="69" x="381.193" y="301.0669">add a vote</text><path d="M456.428,261.341 C457.372,274.606 457.594,290.722 455.193,305 C453.498,315.081 450.075,325.819 446.665,334.904 " fill="none" style="stroke: #A80036; stroke-width: 1.0; stroke-dasharray: 7.0,7.0;"/><polygon fill="#A80036" points="456.018,256.22,452.7508,265.5111,456.418,261.204,460.7251,264.8712,456.018,256.22" style="stroke: #A80036; stroke-width: 1.0;"/><text fill="#000000" font-family="sans-serif" font-size="13" lengthAdjust="spacingAndGlyphs" textLength="76" x="457.193" y="301.0669">count votes</text><path d="M385.323,381.035 C365.452,390.127 342.848,401.277 323.193,413 C301.372,426.015 278.353,442.853 260.556,456.638 " fill="none" style="stroke: #A80036; stroke-width: 1.0; stroke-dasharray: 7.0,7.0;"/><polygon fill="#A80036" points="256.61,459.71,266.1684,457.336,260.5548,456.6378,261.253,451.0242,256.61,459.71" style="stroke: #A80036; stroke-width: 1.0;"/><text fill="#000000" font-family="sans-serif" font-size="13" lengthAdjust="spacingAndGlyphs" textLength="75" x="324.193" y="426.0669">getUpdates</text><path d="M432.08,381.194 C427.358,396.92 418.802,417.385 404.193,430 C365.164,463.701 305.061,475.569 266.434,479.743 " fill="none" style="stroke: #A80036; stroke-width: 1.0; stroke-dasharray: 7.0,7.0;"/><polygon fill="#A80036" points="261.365,480.26,270.7244,483.3263,266.3392,479.7527,269.9127,475.3675,261.365,480.26" style="stroke: #A80036; stroke-width: 1.0;"/><text fill="#000000" font-family="sans-serif" font-size="13" lengthAdjust="spacingAndGlyphs" textLength="167" x="419.193" y="426.0669">editMessageReplyMarkup</text><path d="M133.576,54.175 C124.634,62.425 115.983,72.59 111.193,84 C91.6388,130.579 128.069,187.173 149.749,214.949 " fill="none" style="stroke: #A80036; stroke-width: 1.0; stroke-dasharray: 7.0,7.0;"/><polygon fill="#A80036" points="153.09,219.154,150.6231,209.6191,149.9796,215.2392,144.3595,214.5957,153.09,219.154" style="stroke: #A80036; stroke-width: 1.0;"/><text fill="#000000" font-family="sans-serif" font-size="13" lengthAdjust="spacingAndGlyphs" textLength="59" x="112.193" y="97.0669">message</text><path d="M170.452,54.075 C172.748,63.25 175.061,74.058 176.193,84 C181.328,129.09 173.726,182.154 168.476,210.902 " fill="none" style="stroke: #A80036; stroke-width: 1.0; stroke-dasharray: 7.0,7.0;"/><polygon fill="#A80036" points="167.527,215.979,173.1125,207.8672,168.4457,211.0641,165.2487,206.3973,167.527,215.979" style="stroke: #A80036; stroke-width: 1.0;"/><text fill="#000000" font-family="sans-serif" font-size="13" lengthAdjust="spacingAndGlyphs" textLength="37" x="179.193" y="97.0669">photo</text></g></svg>